<?xml version="1.0" encoding="UTF-8"?>
<!DOCTYPE svg  PUBLIC '-//W3C//DTD SVG 1.1//EN'  'http://www.w3.org/Graphics/SVG/1.1/DTD/svg11.dtd'>
<svg version="1.1" xmlns="http://www.w3.org/2000/svg">
<defs>
<font id="Raleway" horiz-adv-x="574">
<font-face font-family="y" font-weight="400" ascent="800" bbox="-115 -229 1054 931" cap-height="710" descent="-200" panose-1="0 0 0 0 0 0 0 0 0 0" underline-position="0" underline-thickness="0" unicode-range="U+0020-00FE" units-per-em="1000" x-height="524"/>
<missing-glyph/>
<glyph glyph-name="space" horiz-adv-x="240" unicode=" "/>
<glyph d="M87 267v450h134v-450h-134zM87 0v151h134v-151h-134z" glyph-name="exclam" horiz-adv-x="307" unicode="!"/>
<glyph d="M61 499v224h114v-224h-114zM218 499v224h114v-224h-114z" glyph-name="quotedbl" horiz-adv-x="393" unicode='"'/>
<glyph d="M685 424h-146l-32 -137h131v-100h-155l-46 -187h-108l47 187h-120l-45 -187h-108l46 187h-112v100h136l33 137h-122v94h145l47 192h108l-48 -192h120l46 192h108l-47 -192h122v-94zM400 287l32 137h-119l-33 -137h120z" glyph-name="numbersign" horiz-adv-x="721" unicode="#"/>
<glyph d="M288 64h67v-181h-67v181zM297 80v547l48 11v-560zM288 815h67v-165l-67 -10v175zM509 524q-7 7 -25 19t-45 23t-58 19t-63 9q-56 0 -84 -21t-29 -59q0 -29 18 -46t54 -29t90 -26q70 -17 121 -41t79 -64t28 -105q0 -57 -21 -97t-58 -66t-84 -36t-100 -12q-53 0 -106 11 t-102 31t-90 50l61 119q9 -9 32 -23t55 -29t72 -25t80 -10q56 0 85 19t29 54q0 32 -23 50t-64 31t-97 30q-68 19 -113 42t-67 60t-22 90q0 73 35 122t94 75t131 26q50 0 94 -11t84 -29t70 -39z" glyph-name="dollar" horiz-adv-x="634" unicode="$"/>
<glyph d="M200 417q-46 0 -83 20t-59 55t-23 77q0 42 22 76t60 55t83 20q46 0 83 -20t60 -54t22 -77q0 -42 -22 -76t-59 -55t-84 -21zM200 484q20 0 36 12t25 31t10 41q0 24 -10 43t-26 30t-35 12q-20 0 -36 -11t-25 -31t-10 -42q0 -23 10 -42t26 -31t35 -12zM586 -10q-46 0 -83 20 t-59 54t-23 77q0 43 22 77t60 54t83 21q46 0 83 -20t60 -55t22 -76q0 -42 -22 -76t-59 -55t-84 -21zM586 57q20 0 36 12t25 31t10 41q0 24 -9 43t-26 30t-36 12q-19 0 -35 -11t-26 -31t-10 -42q0 -24 10 -43t26 -30t35 -12zM92 47l281 329l260 342l61 -54l-274 -324 l-268 -347z" glyph-name="percent" horiz-adv-x="786" unicode="%"/>
<glyph d="M536 0l-334 354q-42 45 -67 77t-37 60t-11 58q0 51 25 89t70 60t100 21q50 0 92 -17t70 -53t27 -87q0 -47 -23 -85t-63 -70t-88 -62q-36 -23 -65 -45t-46 -46t-17 -54q0 -28 16 -52t44 -38t64 -15q43 0 83 21t73 59t50 93t19 121h109q0 -95 -29 -168t-78 -125t-111 -79 t-129 -27q-73 0 -127 29t-83 78t-30 104q0 56 26 98t66 74t80 58q44 28 74 47t46 39t16 43q0 27 -18 43t-48 17q-22 0 -38 -9t-26 -24t-9 -34q0 -14 8 -28t30 -36t60 -64l405 -425h-176z" glyph-name="ampersand" horiz-adv-x="712" unicode="&amp;"/>
<glyph d="M61 499v224h114v-224h-114z" glyph-name="quotesingle" horiz-adv-x="235" unicode="'"/>
<glyph d="M34 347q0 101 43 202t106 208l102 -43q-15 -24 -36 -65t-42 -92t-34 -107t-14 -106q0 -80 34 -167t89 -181l-98 -49q-41 63 -75 129t-55 135t-20 136z" glyph-name="parenleft" horiz-adv-x="310" unicode="("/>
<glyph d="M275 347q0 -67 -20 -136t-54 -135t-76 -129l-98 49q55 93 89 180t34 168q0 51 -13 106t-34 106t-42 93t-37 65l103 43q62 -106 105 -207t43 -203z" glyph-name="parenright" horiz-adv-x="309" unicode=")"/>
<glyph d="M75 520l47 71l-71 22l18 58l73 -31l-5 77h71l-5 -77l72 31l18 -58l-70 -22l47 -71l-52 -34l-45 75l-46 -75z" glyph-name="asterisk" horiz-adv-x="345" unicode="*"/>
<glyph d="M374 409v-108h-103v-113h-121v113h-103v108h103v113h121v-113h103z" glyph-name="plus" horiz-adv-x="421" unicode="+"/>
<glyph d="M73 -115l27 119h-42v140h116v-140l-41 -119h-60z" glyph-name="comma" horiz-adv-x="232" unicode=","/>
<glyph d="M58 214v121h303v-121h-303z" glyph-name="hyphen" horiz-adv-x="418" unicode="-"/>
<glyph d="M58 0v144h110v-144h-110z" glyph-name="period" horiz-adv-x="225" unicode="."/>
<glyph d="M671 710l-496 -710h-148l495 710h149z" glyph-name="slash" horiz-adv-x="698" unicode="/"/>
<glyph d="M565 293q0 -88 -33 -156t-92 -108t-133 -39q-74 0 -132 39t-92 107t-34 157q0 88 33 156t92 108t133 40t132 -39t92 -108t34 -157zM430 293q0 54 -15 94t-44 64t-64 23q-37 0 -65 -23t-43 -63t-16 -95q0 -54 15 -94t44 -63t65 -23t63 23t44 63t16 94z" glyph-name="zero" horiz-adv-x="614" unicode="0"/>
<glyph d="M470 121v-121h-406v121h142v303q-9 -12 -28 -24t-43 -24t-48 -18t-43 -7v125q18 0 43 11t51 28t44 31t24 25h137v-450h127z" glyph-name="one" horiz-adv-x="494" unicode="1"/>
<glyph d="M38 0q0 45 7 81t24 67t48 58t78 54q41 22 72 38t52 31t33 28t11 34q0 20 -11 36t-31 27t-50 10q-24 0 -44 -6t-38 -17t-33 -24t-27 -29l-85 98q14 14 37 30t56 31t72 24t85 10q68 0 116 -21t73 -60t26 -89q0 -35 -13 -62t-33 -47t-43 -37t-46 -28q-31 -16 -56 -29 t-44 -27t-33 -28t-26 -32h305v-121h-482z" glyph-name="two" horiz-adv-x="564" unicode="2"/>
<glyph d="M381 236q42 -7 73 -31t48 -63t18 -84q0 -62 -32 -108t-90 -71t-138 -26q-76 0 -134 24t-98 72l76 95q26 -32 62 -50t90 -19q61 0 93 24t32 74q0 52 -37 80t-112 28h-28v100h31q61 0 95 28t35 70q0 27 -13 45t-35 27t-53 9q-45 0 -82 -21t-60 -59l-84 94q21 31 57 53 t84 36t100 13q68 0 119 -22t81 -62t29 -93q0 -39 -16 -74t-44 -58t-67 -31z" glyph-name="three" horiz-adv-x="558" unicode="3"/>
<glyph d="M312 -127v149h-292v119l335 430h91v-429h88v-120h-88v-149h-134zM154 142h173v226z" glyph-name="four" horiz-adv-x="571" unicode="4"/>
<glyph d="M262 -149q-77 0 -139 33t-94 90l77 80q28 -39 70 -62t87 -23q36 0 63 15t44 42t16 62q0 35 -15 61t-41 40t-59 15q-33 0 -61 -14t-46 -42h-117l82 423h350v-122h-253l-29 -159q13 12 36 20t57 9q67 0 120 -29t83 -80t30 -119q0 -71 -34 -125t-93 -85t-134 -30z" glyph-name="five" horiz-adv-x="554" unicode="5"/>
<glyph d="M567 237q0 67 -32 120t-89 85t-127 32q-33 0 -62 -9t-51 -27t-36 -42q2 64 20 109t51 70t78 24q44 0 82 -21t62 -59l77 84q-39 54 -95 83t-124 29q-84 0 -146 -45t-95 -135t-34 -219q0 -102 32 -175t90 -112t139 -39q74 0 132 33t93 89t35 125zM307 103q-34 0 -64 18 t-48 49t-18 67t17 65t48 47t66 18q36 0 65 -17t48 -47t18 -66q0 -36 -18 -66t-48 -49t-66 -19z" glyph-name="six" horiz-adv-x="607" unicode="6"/>
<glyph d="M351 461h-323v122h534l-352 -710h-152z" glyph-name="seven" horiz-adv-x="561" unicode="7"/>
<glyph d="M560 210q0 -66 -35 -115t-95 -76t-129 -28q-71 0 -129 29t-93 79t-35 116q0 40 17 72t42 56t52 37q-24 12 -44 32t-33 46t-12 55q0 47 21 84t56 62t76 38t83 13q40 0 82 -12t77 -38t56 -61t22 -85q0 -28 -12 -54t-33 -47t-47 -33q29 -15 55 -39t42 -57t16 -74zM424 218 q0 26 -10 45t-28 33t-40 21t-45 7q-32 0 -59 -13t-45 -37t-17 -56q0 -24 10 -43t28 -34t39 -21t45 -8q32 0 60 14t45 38t17 54zM202 509q0 -27 15 -46t38 -28t47 -10q24 0 46 10t38 28t16 47q0 25 -14 43t-36 28t-51 10q-26 0 -49 -10t-36 -28t-14 -44z" glyph-name="eight" horiz-adv-x="604" unicode="8"/>
<glyph d="M32 324q0 -67 32 -120t89 -85t126 -32q34 0 62 9t51 28t36 41q-1 -64 -19 -109t-51 -70t-78 -24q-44 0 -82 21t-63 59l-77 -84q39 -54 96 -83t124 -29q84 0 146 46t95 135t34 218q0 103 -32 175t-90 112t-140 39q-73 0 -132 -33t-93 -89t-34 -125zM291 458q35 0 65 -18 t48 -49t18 -67t-18 -65t-47 -47t-66 -18q-36 0 -66 17t-47 47t-18 66q0 37 18 67t48 48t65 19z" glyph-name="nine" horiz-adv-x="589" unicode="9"/>
<glyph d="M69 374v144h109v-144h-109zM69 0v144h109v-144h-109z" glyph-name="colon" horiz-adv-x="247" unicode=":"/>
<glyph d="M72 374v144h110v-144h-110zM86 -115l27 119h-42v140h117v-140l-41 -119h-61z" glyph-name="semicolon" horiz-adv-x="259" unicode=";"/>
<glyph d="M32 288l422 255v-142l-227 -142l227 -136v-150l-422 250v65z" glyph-name="less" horiz-adv-x="515" unicode="&lt;"/>
<glyph d="M62 144v87h313v-87h-313zM62 321v87h313v-87h-313z" glyph-name="equal" horiz-adv-x="436" unicode="="/>
<glyph d="M483 223l-422 -250v150l227 136l-227 142v142l422 -255v-65z" glyph-name="greater" horiz-adv-x="515" unicode="&gt;"/>
<glyph d="M122 233q0 32 6 60t25 53t51 43q14 9 36 21t44 27t35 37t15 50q0 28 -13 47t-35 29t-47 10q-29 0 -52 -12t-39 -31t-27 -37l-87 60q18 41 49 70t73 44t87 15q38 0 75 -11t67 -36t48 -61t18 -89q0 -32 -7 -57t-21 -44t-34 -36t-43 -31q-26 -16 -52 -31t-44 -35t-18 -55 h-110zM124 0v138h111v-138h-111z" glyph-name="question" horiz-adv-x="486" unicode="?"/>
<glyph d="M422 603q74 0 141 -24t119 -73t83 -120t30 -164q0 -17 -2 -46t-11 -62t-24 -62t-45 -49t-72 -19q-36 0 -55 12t-28 32t-12 38q-31 -31 -75 -49t-95 -19q-74 0 -113 39t-40 101q0 55 27 86t71 46t89 14q40 0 69 -7t44 -15q0 36 -9 64t-35 43t-70 16q-41 0 -75 -12t-58 -32 l-26 71q37 25 80 37t92 13q65 0 102 -19t53 -51t21 -68t5 -71v-96q0 -29 3 -55t14 -42t34 -16q27 0 44 19t26 50t12 60t3 51q0 70 -23 129t-66 104t-101 68t-131 24q-70 0 -129 -23t-101 -67t-66 -101t-24 -128q0 -67 22 -125t62 -103t98 -69t127 -25q47 0 83 11t73 27 l16 -52q-41 -20 -85 -30t-89 -10q-75 0 -141 27t-115 77t-78 119t-29 153q0 89 31 158t84 117t121 73t144 25zM471 87q18 9 29 20t17 25t5 29v38q-14 4 -44 12t-68 9q-31 0 -55 -7t-38 -26t-14 -46q0 -23 10 -39t28 -26t43 -9q20 0 44 5t43 15z" glyph-name="at" horiz-adv-x="845" unicode="@"/>
<glyph d="M267 710h140l261 -710h-142l-66 177h-248l-65 -177h-142zM435 274l-98 293l-102 -293h200z" glyph-name="A" horiz-adv-x="672" unicode="A"/>
<glyph d="M646 183q0 -60 -31 -100t-83 -62t-115 -21h-343v710h380q50 0 86 -26t56 -68t20 -87q0 -51 -26 -97t-76 -68q61 -18 96 -65t36 -116zM507 209q0 27 -11 48t-29 34t-43 13h-212v-187h205q25 0 45 12t33 34t12 46zM212 592v-179h184q23 0 42 11t30 31t12 48q0 27 -10 47 t-28 31t-40 11h-190z" glyph-name="B" horiz-adv-x="680" unicode="B"/>
<glyph d="M31 360q0 65 23 127t69 114t110 82t148 31q98 0 169 -43t107 -112l-106 -73q-18 40 -47 63t-62 33t-65 10q-52 0 -90 -21t-65 -55t-38 -76t-13 -84q0 -47 15 -90t42 -77t66 -53t85 -20q33 0 67 11t63 35t45 62l113 -65q-21 -53 -68 -90t-107 -56t-117 -19q-76 0 -139 31 t-108 84t-71 118t-26 133z" glyph-name="C" horiz-adv-x="686" unicode="C"/>
<glyph d="M74 0v710h258q116 0 194 -47t117 -128t39 -179q0 -108 -43 -188t-121 -124t-186 -44h-258zM543 356q0 69 -25 121t-72 82t-114 30h-120v-468h120q68 0 115 30t71 84t25 121z" glyph-name="D" horiz-adv-x="716" unicode="D"/>
<glyph d="M567 121v-121h-493v710h484v-121h-346v-171h299v-112h-299v-185h355z" glyph-name="E" horiz-adv-x="601" unicode="E"/>
<glyph d="M74 0v710h477v-121h-339v-183h282v-112h-282v-294h-138z" glyph-name="F" unicode="F"/>
<glyph d="M369 -5q-69 0 -130 28t-108 77t-73 116t-26 143q0 73 26 137t73 114t110 77t137 28q100 0 171 -42t108 -113l-103 -76q-27 53 -75 81t-106 28q-45 0 -82 -19t-64 -52t-41 -76t-15 -91q0 -51 15 -94t44 -75t67 -50t84 -19q54 0 103 28t93 82v-136q-89 -96 -208 -96z M567 264h-143v101h257v-365h-114v264z" glyph-name="G" horiz-adv-x="725" unicode="G"/>
<glyph d="M671 710v-710h-137v303h-322v-303h-138v710h138v-287h322v287h137z" glyph-name="H" horiz-adv-x="745" unicode="H"/>
<glyph d="M74 0v710h138v-710h-138z" glyph-name="I" horiz-adv-x="286" unicode="I"/>
<glyph d="M38 145q13 -9 46 -21t78 -13q39 0 64 13t38 41t18 70t5 103v372h138v-361q0 -80 -9 -146t-35 -114t-78 -74t-140 -26q-48 0 -86 11t-70 33z" glyph-name="J" horiz-adv-x="491" unicode="J"/>
<glyph d="M74 0v709h138v-337l298 338h152l-272 -315l289 -395h-156l-221 306l-90 -94v-212h-138z" glyph-name="K" horiz-adv-x="669" unicode="K"/>
<glyph d="M74 0v710h138v-589h362v-121h-500z" glyph-name="L" horiz-adv-x="584" unicode="L"/>
<glyph d="M653 0v466l-182 -347h-77l-182 347v-466h-138v710h148l210 -404l212 404h147v-710h-138z" glyph-name="M" horiz-adv-x="865" unicode="M"/>
<glyph d="M212 456v-456h-138v710h110l367 -468v467h138v-709h-115z" glyph-name="N" horiz-adv-x="763" unicode="N"/>
<glyph d="M377 -5q-78 0 -141 30t-109 81t-71 116t-25 133q0 71 26 135t73 115t110 80t140 30q77 0 140 -31t109 -83t70 -116t25 -132q0 -70 -26 -134t-72 -115t-110 -80t-139 -29zM171 355q0 -46 14 -89t40 -76t65 -53t88 -20q50 0 89 20t65 55t39 77t14 86q0 46 -14 88t-41 76 t-65 53t-87 20q-51 0 -89 -20t-65 -55t-39 -76t-14 -86z" glyph-name="O" horiz-adv-x="756" unicode="O"/>
<glyph d="M74 0v710h301q49 0 90 -20t71 -54t48 -76t17 -86q0 -60 -28 -114t-77 -88t-116 -34h-168v-238h-138zM212 359h160q25 0 45 14t32 40t12 61q0 37 -13 63t-35 39t-47 13h-154v-230z" glyph-name="P" horiz-adv-x="623" unicode="P"/>
<glyph d="M377 -5q-78 0 -141 30t-109 82t-71 115t-25 133q0 71 26 135t73 115t110 80t140 30q77 0 140 -31t109 -83t70 -116t25 -132q0 -70 -26 -134t-72 -115t-110 -80t-139 -29zM378 117q50 0 89 20t65 55t39 77t14 86q0 46 -14 89t-41 76t-65 53t-87 20q-51 0 -89 -20t-65 -55 t-39 -77t-14 -86q0 -46 14 -89t40 -76t65 -53t88 -20zM364 263h130l234 -263h-130z" glyph-name="Q" horiz-adv-x="755" unicode="Q"/>
<glyph d="M74 0v710h314q49 0 90 -20t72 -54t47 -76t17 -86q0 -45 -15 -86t-45 -73t-68 -48l162 -267h-152l-146 238h-138v-238h-138zM212 359h173q26 0 46 15t32 42t12 58q0 34 -14 59t-35 41t-47 15h-167v-230z" glyph-name="R" horiz-adv-x="665" unicode="R"/>
<glyph d="M497 524q-7 7 -25 19t-45 23t-58 19t-63 9q-56 0 -84 -21t-29 -59q0 -29 18 -46t54 -29t90 -26q70 -17 121 -41t79 -64t28 -105q0 -57 -21 -97t-58 -66t-84 -36t-100 -12q-53 0 -106 11t-102 31t-90 50l61 119q9 -9 32 -23t56 -29t72 -25t79 -10q56 0 85 19t29 54 q0 32 -23 50t-64 31t-97 30q-67 19 -112 42t-67 60t-22 90q0 73 34 122t94 75t131 26q50 0 94 -11t84 -29t70 -39z" glyph-name="S" horiz-adv-x="613" unicode="S"/>
<glyph d="M605 589h-227v-589h-137v589h-227v121h591v-121z" glyph-name="T" horiz-adv-x="619" unicode="T"/>
<glyph d="M375 -5q-85 0 -144 28t-96 79t-54 113t-17 133v362h138v-362q0 -44 8 -85t29 -75t53 -52t82 -19q50 0 83 19t53 53t29 74t9 85v362h137v-362q0 -73 -17 -137t-55 -112t-97 -76t-141 -28z" glyph-name="U" horiz-adv-x="750" unicode="U"/>
<glyph d="M147 710l192 -546l190 546h145l-269 -710h-133l-270 710h145z" glyph-name="V" horiz-adv-x="676" unicode="V"/>
<glyph d="M317 708h128l81 -235l82 235h127l-122 -323l90 -226l201 551h150l-284 -710h-119l-125 298l-124 -298h-119l-283 710h148l202 -551l88 226z" glyph-name="W" horiz-adv-x="1053" unicode="W"/>
<glyph d="M148 710l176 -262l175 262h150l-246 -360l238 -350h-150l-167 252l-168 -252h-151l238 350l-246 360h151z" glyph-name="X" horiz-adv-x="646" unicode="X"/>
<glyph d="M154 710l175 -334l178 334h149l-258 -462v-248h-137v250l-257 460h150z" glyph-name="Y" horiz-adv-x="660" unicode="Y"/>
<glyph d="M30 104l396 485h-385v121h549v-104l-383 -485h386v-121h-563v104z" glyph-name="Z" horiz-adv-x="627" unicode="Z"/>
<glyph d="M82 -40v780h187v-107h-63v-566h63v-107h-187z" glyph-name="bracketleft" horiz-adv-x="316" unicode="["/>
<glyph d="M176 710l435 -710h-148l-436 710h149z" glyph-name="backslash" horiz-adv-x="637" unicode="\"/>
<glyph d="M46 -40v107h64v566h-64v107h188v-780h-188z" glyph-name="bracketright" horiz-adv-x="316" unicode="]"/>
<glyph d="M39 303l198 407h112l197 -407h-110l-143 294l-146 -294h-108z" glyph-name="asciicircum" horiz-adv-x="585" unicode="^"/>
<glyph d="M54 -121v121h367v-121h-367z" glyph-name="underscore" horiz-adv-x="475" unicode="_"/>
<glyph d="M47 730h124l55 -119l-86 -26z" glyph-name="grave" horiz-adv-x="255" unicode="`"/>
<glyph d="M25 155q0 51 28 89t80 60t117 21q33 0 67 -5t59 -16v28q0 50 -29 77t-88 27q-43 0 -82 -15t-82 -44l-43 88q52 34 106 51t115 17q112 0 174 -56t63 -160v-167q0 -21 7 -30t25 -11v-109q-18 -3 -32 -5t-25 -2q-40 0 -60 18t-26 44l-3 27q-34 -44 -85 -68t-104 -24 q-52 0 -93 21t-65 59t-24 85zM351 128q11 12 18 24t7 22v53q-24 10 -52 15t-53 6q-52 0 -85 -22t-34 -60q0 -20 11 -38t32 -29t50 -11q30 0 59 11t47 29z" glyph-name="a" unicode="a"/>
<glyph d="M359 -10q-60 0 -107 27t-74 74v-91h-117v730h134v-298q28 47 73 74t107 27q51 0 93 -21t72 -60t47 -87t17 -105q0 -56 -18 -105t-52 -86t-77 -58t-98 -21zM322 104q32 0 58 12t46 34t30 49t11 60q0 43 -17 79t-48 59t-72 22q-29 0 -55 -13t-47 -37t-33 -52v-125 q6 -20 19 -36t32 -27t37 -18t39 -7z" glyph-name="b" horiz-adv-x="634" unicode="b"/>
<glyph d="M305 -10q-64 0 -115 21t-87 60t-55 88t-20 103q0 74 33 135t96 99t147 37q85 0 146 -37t91 -97l-131 -40q-17 29 -45 44t-62 16q-38 0 -69 -19t-50 -55t-18 -83q0 -46 18 -81t50 -56t69 -21q24 0 45 8t39 22t25 32l131 -40q-18 -39 -52 -70t-81 -48t-105 -18z" glyph-name="c" horiz-adv-x="564" unicode="c"/>
<glyph d="M29 262q0 76 30 137t83 98t121 36q58 0 104 -28t73 -73v298h134v-580q0 -21 7 -30t24 -11v-109q-35 -7 -57 -7q-36 0 -59 18t-27 47l-2 33q-29 -49 -78 -75t-104 -26q-54 0 -99 21t-79 58t-52 86t-19 107zM440 192v125q-10 29 -32 52t-49 36t-54 14q-31 0 -56 -13 t-43 -35t-28 -51t-10 -61t10 -60t31 -50t46 -33t58 -12q19 0 38 6t37 18t31 28t21 36z" glyph-name="d" horiz-adv-x="645" unicode="d"/>
<glyph d="M304 -10q-63 0 -114 21t-87 59t-55 86t-20 103q0 75 33 137t96 99t148 38q86 0 147 -37t93 -99t33 -133q0 -12 -1 -24t-2 -21h-405q4 -40 23 -70t50 -45t66 -16q40 0 75 19t49 52l115 -32q-19 -40 -54 -71t-84 -48t-106 -18zM167 304h274q-4 40 -22 69t-49 46t-67 17 t-65 -16t-48 -46t-23 -70z" glyph-name="e" horiz-adv-x="599" unicode="e"/>
<glyph d="M93 0v394h-69v102h69v32q0 65 21 112t61 74t93 26q32 0 64 -8t65 -23l-27 -101q-15 8 -35 13t-38 6q-34 0 -52 -24t-18 -70v-37h128v-102h-128v-394h-134z" glyph-name="f" horiz-adv-x="370" unicode="f"/>
<glyph d="M266 -3q-52 0 -95 20t-75 58t-49 85t-17 102q0 57 18 106t50 86t77 58t99 21q61 0 107 -27t76 -74v92h117v-499q0 -78 -37 -133t-104 -85t-150 -30q-85 0 -144 28t-101 81l73 71q30 -37 75 -58t97 -21q43 0 78 15t57 48t22 84v66q-26 -45 -73 -69t-101 -25zM311 104 q22 0 42 7t37 19t30 28t20 34v125q-12 31 -33 54t-48 35t-56 13q-31 0 -56 -13t-43 -36t-27 -52t-10 -60q0 -32 11 -60t30 -49t46 -33t57 -12z" glyph-name="g" horiz-adv-x="634" unicode="g"/>
<glyph d="M548 0h-134v294q0 61 -23 91t-65 30q-24 0 -51 -14t-48 -38t-32 -57v-306h-134v730h134v-303q29 50 79 78t109 28q51 0 83 -17t50 -47t25 -66t7 -76v-327z" glyph-name="h" horiz-adv-x="604" unicode="h"/>
<glyph d="M61 0v524h134v-524h-134zM61 597v133h134v-133h-134z" glyph-name="i" horiz-adv-x="255" unicode="i"/>
<glyph d="M18 -196q-37 0 -71 11t-62 36l58 91q11 -12 27 -17t32 -5q18 0 32 8t23 24t9 34v538h134v-528q0 -56 -24 -100t-65 -68t-93 -24zM66 597v133h134v-133h-134z" glyph-name="j" horiz-adv-x="261" unicode="j"/>
<glyph d="M419 0l-153 226l-71 -70v-156h-134v730h134v-442l211 235h142l-195 -222l209 -301h-143z" glyph-name="k" horiz-adv-x="558" unicode="k"/>
<glyph d="M60 730h134v-562q0 -36 12 -48t33 -13q16 0 33 4t30 10l18 -102q-27 -13 -63 -20t-65 -7q-63 0 -97 33t-35 96v609z" glyph-name="l" horiz-adv-x="317" unicode="l"/>
<glyph d="M875 0h-134v294q0 62 -21 91t-60 30q-39 0 -74 -30t-51 -80v-305h-134v294q0 63 -21 92t-60 29t-74 -30t-51 -79v-306h-134v524h121v-97q30 51 80 78t115 28q65 0 101 -32t47 -79q32 54 81 82t112 29q49 0 79 -17t48 -47t23 -67t7 -75v-327z" glyph-name="m" horiz-adv-x="931" unicode="m"/>
<glyph d="M548 0h-134v294q0 63 -22 92t-61 29q-27 0 -54 -14t-50 -38t-32 -57v-306h-134v524h121v-97q20 34 51 57t71 36t86 13q49 0 80 -17t48 -47t23 -67t7 -75v-327z" glyph-name="n" horiz-adv-x="604" unicode="n"/>
<glyph d="M303 -10q-64 0 -115 21t-86 60t-55 87t-19 103q0 55 19 104t54 87t87 59t115 22q64 0 114 -21t87 -60t54 -87t19 -104q0 -54 -18 -103t-54 -87t-87 -59t-115 -22zM166 261q0 -46 18 -81t49 -56t70 -20q38 0 69 20t49 56t19 82q0 45 -18 81t-50 56t-69 20q-39 0 -70 -20 t-49 -56t-18 -82z" glyph-name="o" horiz-adv-x="606" unicode="o"/>
<glyph d="M375 -10q-61 0 -107 27t-73 75v-305h-134v737h117v-90q30 46 76 72t105 27q53 0 97 -21t78 -58t51 -86t19 -105q0 -76 -29 -138t-81 -98t-119 -37zM330 104q31 0 56 13t43 35t28 51t10 60q0 33 -10 61t-31 49t-46 34t-58 12q-19 0 -38 -6t-38 -19t-31 -28t-20 -35v-123 q12 -29 32 -53t48 -37t55 -14z" glyph-name="p" horiz-adv-x="634" unicode="p"/>
<glyph d="M259 -10q-50 0 -92 21t-73 59t-47 87t-17 106q0 57 18 106t52 86t78 57t97 21q60 0 106 -27t75 -73v91h117v-737h-134v305q-60 -102 -180 -102zM309 104q29 0 52 11t43 30t35 45v124q-5 22 -18 41t-32 33t-40 23t-42 8q-31 0 -56 -13t-45 -35t-29 -51t-10 -61 q0 -43 18 -78t50 -56t74 -21z" glyph-name="q" horiz-adv-x="634" unicode="q"/>
<glyph d="M373 408q-61 0 -109 -23t-69 -68v-317h-134v524h123v-112q28 54 71 85t91 34h17t10 -1v-122z" glyph-name="r" horiz-adv-x="387" unicode="r"/>
<glyph d="M254 -10q-67 0 -128 22t-105 65l48 87q47 -38 92 -56t88 -18q39 0 62 14t24 42q0 19 -13 29t-37 19t-60 18q-58 19 -97 37t-58 45t-20 71q0 52 26 89t74 59t112 21q56 0 106 -17t91 -57l-54 -85q-40 31 -76 45t-73 15q-21 0 -39 -5t-30 -16t-12 -33q0 -19 10 -29t32 -19 t53 -18q63 -18 106 -37t66 -46t22 -76q0 -78 -57 -122t-153 -44z" glyph-name="s" horiz-adv-x="494" unicode="s"/>
<glyph d="M375 27q-17 -7 -41 -16t-51 -14t-56 -6q-37 0 -68 13t-49 41t-19 75v301h-69v103h69v170h134v-170h110v-103h-110v-256q1 -27 15 -39t35 -12t41 7t32 12z" glyph-name="t" horiz-adv-x="384" unicode="t"/>
<glyph d="M56 196v328h134v-299q0 -60 22 -90t65 -31q26 0 51 10t47 32t37 53v325h134v-374q0 -21 7 -30t25 -11v-109q-20 -3 -33 -4t-25 -2q-36 0 -58 16t-27 46l-3 42q-35 -53 -90 -80t-121 -28q-81 0 -123 52t-42 154z" glyph-name="u" horiz-adv-x="618" unicode="u"/>
<glyph d="M202 0l-193 524h139l132 -402l133 402h127l-192 -524h-146z" glyph-name="v" horiz-adv-x="550" unicode="v"/>
<glyph d="M711 524h127l-219 -524h-112l-88 225l-86 -225h-113l-218 524h126l156 -396l61 171l-91 224h111l54 -160l55 160h111l-91 -224l62 -171z" glyph-name="w" horiz-adv-x="839" unicode="w"/>
<glyph d="M147 524l110 -164l8 -18l10 18l109 164h141l-182 -261l185 -263h-141l-113 163l-9 17l-8 -17l-112 -163h-141l185 260l-182 264h140z" glyph-name="x" horiz-adv-x="531" unicode="x"/>
<glyph d="M72 -102q18 -4 33 -7t27 -3q19 0 31 9t25 34t25 69l-207 524h139l141 -387l124 387h128l-220 -628q-12 -35 -36 -63t-61 -45t-82 -17q-16 0 -32 2t-35 9v116z" glyph-name="y" horiz-adv-x="550" unicode="y"/>
<glyph d="M26 82l289 348h-277v94h421v-82l-287 -348h292v-94h-438v82z" glyph-name="z" horiz-adv-x="493" unicode="z"/>
<glyph d="M212 633v-204q0 -20 -9 -37t-25 -32q15 -13 24 -31t10 -38v-215h55v-107h-152q-7 0 -15 6t-8 24v248q0 27 -15 45t-35 22v94q14 0 25 10t18 26t7 29v237q0 19 8 24t15 6h152v-107h-55z" glyph-name="braceleft" horiz-adv-x="317" unicode="{"/>
<glyph d="M79 -130v905h114v-905h-114z" glyph-name="bar" horiz-adv-x="272" unicode="|"/>
<glyph d="M50 633v107h153q5 0 14 -5t9 -25v-237q0 -14 6 -29t18 -25t26 -11v-94q-20 -3 -35 -21t-15 -46v-248q0 -18 -8 -24t-15 -6h-153v107h55v215q0 19 9 37t26 32q-16 14 -25 31t-10 38v204h-55z" glyph-name="braceright" horiz-adv-x="317" unicode="}"/>
<glyph d="M56 228q0 8 7 29t23 45t42 41t67 17q36 0 64 -13t56 -27t56 -14t43 12t20 25t6 15h74q0 -6 -7 -26t-24 -44t-44 -42t-69 -18q-36 0 -65 13t-56 26t-55 13q-27 0 -41 -12t-18 -26t-5 -14h-74z" glyph-name="asciitilde" horiz-adv-x="567" unicode="~"/>
<glyph glyph-name="uni00A0" horiz-adv-x="240" unicode=" "/>
<glyph d="M220 445v-450h-134v450h134zM220 712v-151h-134v151h134z" glyph-name="exclamdown" horiz-adv-x="305" unicode="¡"/>
<glyph d="M276 -120v111q-51 4 -94 28t-76 62t-49 83t-18 94q0 68 27 126t81 97t129 51v113h60v-113q70 -2 127 -36t89 -97l-130 -40q-14 25 -37 39t-49 17v-308q18 4 36 11t32 20t20 28l131 -40q-19 -45 -58 -75t-82 -46t-79 -15v-110h-60zM177 258q0 -32 12 -61t35 -52t52 -32 v296q-23 -5 -41 -18t-32 -35t-19 -46t-7 -52z" glyph-name="cent" horiz-adv-x="592" unicode="¢"/>
<glyph d="M57 381h377v-101h-377v101zM51 87q36 30 59 60t36 63t12 63q0 37 -12 69t-29 64t-28 64t-13 67q0 50 27 90t75 64t104 24q60 0 115 -28t92 -77l-70 -82q-24 34 -63 56t-76 22q-24 0 -43 -10t-30 -30t-11 -42q0 -27 11 -53t27 -55t27 -63t12 -74q0 -30 -8 -58t-27 -56 t-50 -61q22 6 40 9t36 3q25 0 47 -4t45 -8t44 -5q18 0 35 4t40 12l33 -100q-24 -14 -55 -22t-60 -8q-30 0 -60 7t-62 15t-63 7q-26 0 -61 -6t-67 -16z" glyph-name="sterling" horiz-adv-x="545" unicode="£"/>
<glyph d="M170 495q22 15 49 22t58 8q30 0 56 -7t49 -22l69 71l55 -55l-68 -67q15 -23 23 -50t8 -58q0 -29 -8 -56t-24 -51l69 -68l-50 -50l-72 68q-22 -13 -49 -21t-58 -8q-32 0 -59 8t-50 22l-73 -69l-49 50l69 69q-31 48 -31 106q0 30 7 57t23 49l-68 69l54 55zM183 337 q0 -30 12 -53t34 -36t48 -13q27 0 47 13t33 37t13 53q0 30 -12 53t-33 36t-48 13q-26 0 -47 -13t-34 -36t-13 -54z" glyph-name="currency" horiz-adv-x="552" unicode="¤"/>
<glyph d="M505 402h73v-87h-120l-36 -67v-30h157v-87h-157v-131h-137v131h-155v87h155v32l-34 65h-120v87h74l-176 308h149l176 -342l177 342h150z" glyph-name="yen" horiz-adv-x="712" unicode="¥"/>
<glyph d="M195 264v-394h-114v394h114zM195 775v-394h-114v394h114z" glyph-name="brokenbar" horiz-adv-x="275" unicode="¦"/>
<glyph d="M456 215q16 -14 25 -39t10 -63q0 -55 -21 -93t-56 -62t-72 -35t-73 -11q-40 0 -74 10t-61 27t-48 35t-33 32l86 82q31 -31 61 -45t63 -14q23 0 43 8t33 23t13 38q0 24 -12 35t-30 15t-38 5q-66 5 -112 28t-70 61t-25 89q0 29 6 47t13 27q-14 14 -27 42t-14 68q0 52 28 95 t77 69t106 26q43 0 77 -12t60 -31t44 -40t31 -40l-103 -49q-9 17 -24 29t-35 18t-42 6q-24 0 -43 -8t-30 -24t-11 -37q0 -36 24 -48t60 -14q37 -1 75 -10t70 -28t51 -51t19 -79q0 -28 -7 -50t-14 -32zM195 323q0 -23 10 -36t26 -19t34 -9t36 -4t31 -7q9 8 13 20t5 25 q0 25 -13 39t-33 19t-37 6q-16 0 -32 3t-24 6q-7 -7 -11 -18t-5 -25z" glyph-name="section" horiz-adv-x="532" unicode="§"/>
<glyph d="M77 604v119h111v-119h-111zM269 604v119h111v-119h-111z" glyph-name="dieresis" horiz-adv-x="457" unicode="¨"/>
<glyph d="M417 -7q-80 0 -148 27t-119 76t-79 115t-28 144q0 77 28 143t78 114t119 76t149 27q82 0 151 -27t122 -75t80 -115t28 -143q0 -78 -28 -144t-80 -115t-121 -76t-152 -27zM417 46q69 0 127 22t103 64t69 97t25 125q0 65 -24 121t-68 98t-103 65t-129 24q-67 0 -125 -23 t-101 -66t-67 -97t-24 -122q0 -64 23 -120t67 -98t101 -66t126 -24zM426 121q-55 0 -100 17t-79 50t-51 74t-18 93q0 44 15 86t47 75t77 53t107 20q78 0 134 -34t83 -92l-127 -39q-10 20 -25 32t-33 17t-33 5q-26 0 -46 -10t-35 -27t-22 -39t-8 -47q0 -30 9 -53t26 -38 t37 -24t40 -8q19 0 36 6t33 19t24 30l127 -38q-15 -33 -45 -62t-73 -48t-100 -18z" glyph-name="copyright" horiz-adv-x="841" unicode="©"/>
<glyph d="M160 339q-50 0 -85 32t-35 82q0 53 42 86t108 33q49 0 83 -16v19q0 33 -18 51t-57 19q-29 0 -55 -10t-55 -30l-30 61q69 47 149 47q78 0 121 -38t43 -112v-104q0 -15 5 -21t20 -8v-85q-13 -2 -24 -3t-20 -1q-28 0 -43 11t-19 33l-2 19q-24 -31 -57 -48t-71 -17zM189 411 q20 0 39 7t31 20q14 12 14 26v39q-15 6 -32 9t-34 3q-33 0 -54 -14t-21 -39q0 -22 16 -36t41 -15z" glyph-name="ordfeminine" horiz-adv-x="444" unicode="ª"/>
<glyph d="M35 288l264 189v-109l-157 -109l157 -103v-110l-264 177v65zM327 288l263 189v-109l-157 -109l157 -103v-110l-263 177v65z" glyph-name="guillemotleft" horiz-adv-x="649" unicode="«"/>
<glyph d="M547 400v-294h-114v174h-374v120h488z" glyph-name="logicalnot" horiz-adv-x="612" unicode="¬"/>
<glyph d="M58 214v121h488v-121h-488z" glyph-name="uni00AD" horiz-adv-x="603" unicode="­"/>
<glyph d="M419 -7q-82 0 -150 27t-119 76t-79 115t-28 144q0 77 28 143t78 114t119 76t151 27q81 0 150 -27t121 -75t79 -115t29 -143q0 -78 -28 -144t-80 -115t-120 -76t-151 -27zM419 45q90 0 162 39t115 109t43 160q0 65 -24 121t-67 98t-101 66t-128 24q-69 0 -126 -23 t-101 -66t-66 -98t-23 -120q0 -65 23 -121t66 -99t100 -66t127 -24zM257 576h195q41 0 72 -22t50 -55t18 -70q0 -27 -10 -52t-28 -45t-42 -30l103 -166h-107l-92 148h-64v-148h-95v440zM444 363q25 0 39 17t15 49q0 33 -16 49t-40 16h-90v-131h92z" glyph-name="registered" horiz-adv-x="841" unicode="®"/>
<glyph d="M60 633v83h300v-83h-300z" glyph-name="macron" horiz-adv-x="419" unicode="¯"/>
<glyph d="M40 625q0 42 29 70t73 29q45 0 74 -28t29 -71q0 -48 -29 -77t-74 -29q-43 0 -72 30t-30 76zM115 648q-10 -12 -10 -27t10 -25q12 -12 27 -12q17 0 27 12q5 4 7 11t3 15q0 8 -2 14t-8 12q-5 5 -12 8t-15 3q-16 0 -27 -11z" glyph-name="degree" horiz-adv-x="285" unicode="°"/>
<glyph d="M59 28v108h354v-108h-354zM413 430v-107h-117v-127h-120v127h-117v107h117v127h120v-127h117z" glyph-name="plusminus" horiz-adv-x="472" unicode="±"/>
<glyph d="M30 389q0 53 12 88t41 61t77 45q30 13 61 25t53 30t21 44q0 27 -23 43t-64 17q-30 0 -53 -8t-41 -20t-30 -25l-51 58q11 14 36 30t63 27t85 12q82 0 124 -35t42 -95q0 -34 -13 -57t-33 -39t-44 -26t-42 -15q-33 -10 -53 -23t-29 -28t-9 -31h220v-78h-350z" glyph-name="uni00B2" horiz-adv-x="416" unicode="²"/>
<glyph d="M195 383q-61 0 -107 20t-60 59l42 54q8 -13 24 -26t41 -21t57 -8q39 0 67 13t29 42q0 27 -32 41t-99 14h-23v72h23q58 0 87 12t29 38q0 27 -26 39t-56 12q-39 0 -67 -14t-46 -34l-49 60q15 20 42 32t60 20t65 8q50 0 87 -15t58 -41t22 -61q0 -34 -23 -57t-63 -31 q44 -7 70 -37t26 -72q0 -40 -25 -67t-65 -39t-88 -13z" glyph-name="uni00B3" horiz-adv-x="407" unicode="³"/>
<glyph d="M133 585l-86 26l54 119h125z" glyph-name="acute" horiz-adv-x="255" unicode="´"/>
<glyph d="M77 524h134v-299q0 -60 22 -90t68 -31q24 0 49 10t47 32t37 53v325h134v-370q0 -21 8 -30t28 -10v-114q-21 -3 -36 -4t-27 -2q-37 0 -59 18t-26 48l-2 38q-11 -23 -36 -48t-57 -43t-69 -17q-25 0 -44 9t-30 24t-16 26l9 -261h-134v736z" glyph-name="mu" horiz-adv-x="664" unicode="µ"/>
<glyph d="M35 456q0 121 74 187t208 67h294v-100h-70v-690h-113v288h-51v-288h-114v288q-69 0 -120 31t-80 87t-28 130zM147 459q0 -46 15 -78t42 -51t59 -22v302q-55 -3 -85 -44t-31 -107zM428 610h-51v-302h51v302z" glyph-name="paragraph" horiz-adv-x="657" unicode="¶"/>
<glyph d="M58 242v151h110v-151h-110z" glyph-name="periodcentered" horiz-adv-x="225" unicode="·"/>
<glyph d="M148 -201q-27 0 -58 7t-62 23l34 71q15 -10 30 -15t33 -6q26 0 40 11t15 34q0 21 -14 39t-42 37l45 29q40 -26 66 -56t26 -75q0 -42 -28 -70t-85 -29z" glyph-name="cedilla" horiz-adv-x="326" unicode="¸"/>
<glyph d="M277 469v-79h-229v79h78v261q-7 -9 -23 -21t-35 -21t-36 -9v79q21 0 42 14t37 28t15 16h81v-347h70z" glyph-name="uni00B9" horiz-adv-x="298" unicode="¹"/>
<glyph d="M222 339q-58 0 -100 26t-64 69t-22 92q0 50 22 92t64 69t100 26q58 0 99 -26t64 -68t23 -93q0 -49 -22 -92t-64 -69t-100 -26zM135 525q0 -29 11 -52t31 -37t45 -13q24 0 43 13t31 37t12 53q0 31 -11 53t-31 36t-44 13q-24 0 -44 -13t-31 -36t-12 -54z" glyph-name="ordmasculine" horiz-adv-x="443" unicode="º"/>
<glyph d="M613 223l-264 -177v110l158 103l-158 109v109l264 -189v-65zM322 223l-264 -177v110l158 103l-158 109v109l264 -189v-65z" glyph-name="guillemotright" horiz-adv-x="649" unicode="»"/>
<glyph d="M277 384v-78h-229v78h78v261q-7 -8 -23 -20t-35 -22t-36 -9v80q21 0 42 14t37 28t15 15h81v-347h70zM96 47l282 329l260 342l61 -54l-274 -324l-268 -347zM712 0v97h-217v73l246 252h59v-256h56v-69h-56v-97h-88zM572 166h143v149z" glyph-name="onequarter" horiz-adv-x="883" unicode="¼"/>
<glyph d="M529 0q0 53 12 88t39 60t76 46q30 13 60 25t51 29t21 45q0 27 -23 43t-62 17q-29 0 -52 -8t-41 -21t-29 -25l-49 58q10 14 35 30t62 28t84 11q79 0 120 -35t42 -95q0 -33 -13 -56t-33 -40t-42 -25t-41 -15q-32 -10 -52 -23t-28 -28t-9 -31h219v-78h-347zM277 384v-78 h-229v78h78v261q-7 -8 -23 -20t-35 -22t-36 -9v80q21 0 42 14t37 28t15 15h81v-347h70zM97 47l281 329l261 342l61 -54l-275 -324l-268 -347z" glyph-name="onehalf" horiz-adv-x="913" unicode="½"/>
<glyph d="M195 298q-61 0 -107 20t-60 59l42 55q8 -13 24 -26t41 -21t57 -9q39 0 67 14t29 41q0 28 -32 42t-99 14h-23v71h23q58 0 87 12t29 38q0 27 -26 39t-56 13q-39 0 -67 -14t-46 -35l-49 61q15 19 42 32t60 20t65 7q50 0 87 -15t58 -41t22 -60q0 -34 -23 -57t-63 -32 q44 -7 70 -37t26 -71t-25 -67t-65 -40t-88 -13zM205 47l282 329l260 342l61 -54l-274 -324l-268 -347zM820 0v97h-217v73l246 252h59v-256h56v-69h-56v-97h-88zM680 166h143v149z" glyph-name="threequarters" horiz-adv-x="991" unicode="¾"/>
<glyph d="M360 273q0 -32 -7 -60t-24 -52t-51 -44q-15 -9 -37 -21t-43 -27t-36 -37t-14 -50q0 -27 13 -46t35 -30t47 -10q29 0 51 12t40 31t27 37l87 -60q-18 -41 -49 -70t-73 -44t-88 -15q-37 0 -74 11t-67 36t-48 61t-18 89q0 32 7 57t21 44t33 36t44 31q27 17 52 31t43 35t18 55 h111zM357 506v-138h-110v138h110z" glyph-name="questiondown" horiz-adv-x="479" unicode="¿"/>
<glyph d="M267 710h140l261 -710h-142l-66 177h-248l-65 -177h-142zM435 274l-98 293l-102 -293h200zM212 916h124l55 -119l-86 -26z" glyph-name="Agrave" horiz-adv-x="672" unicode="À"/>
<glyph d="M267 710h140l261 -710h-142l-66 177h-248l-65 -177h-142zM435 274l-98 293l-102 -293h200zM381 770l-86 26l54 119h125z" glyph-name="Aacute" horiz-adv-x="672" unicode="Á"/>
<glyph d="M267 710h140l261 -710h-142l-66 177h-248l-65 -177h-142zM435 274l-98 293l-102 -293h200zM182 814l106 101h97l106 -101l-69 -32l-85 63l-85 -63z" glyph-name="Acircumflex" horiz-adv-x="672" unicode="Â"/>
<glyph d="M267 710h140l261 -710h-142l-66 177h-248l-65 -177h-142zM435 274l-98 293l-102 -293h200zM402 787q-30 0 -51 11t-40 23t-40 11q-22 0 -32 -11t-13 -24l-3 -13h-74q0 9 6 30t19 43t36 39t56 16q31 0 51 -12t38 -23t43 -12q24 0 35 12t14 24t4 14h74q0 -7 -6 -27t-20 -43 t-38 -41t-59 -17z" glyph-name="Atilde" horiz-adv-x="672" unicode="Ã"/>
<glyph d="M267 710h140l261 -710h-142l-66 177h-248l-65 -177h-142zM435 274l-98 293l-102 -293h200zM185 790v119h111v-119h-111zM377 790v119h111v-119h-111z" glyph-name="Adieresis" horiz-adv-x="672" unicode="Ä"/>
<glyph d="M267 710h140l261 -710h-142l-66 177h-248l-65 -177h-142zM435 274l-98 293l-102 -293h200zM232 840q0 42 29 66t76 25q47 0 76 -24t29 -67q0 -41 -29 -65t-76 -25q-46 0 -75 24t-30 66zM337 884q-18 0 -31 -12t-13 -31q0 -18 12 -31t32 -13q18 0 31 12t13 32q0 18 -13 30 t-31 13z" glyph-name="Aring" horiz-adv-x="672" unicode="Å"/>
<glyph d="M418 710h505v-121h-333v-167h279v-121h-279v-180h342v-121h-478v177h-228l-105 -177h-146zM444 297v258l-159 -258h159z" glyph-name="AE" horiz-adv-x="966" unicode="Æ"/>
<glyph d="M31 360q0 65 23 127t69 114t110 82t148 31q98 0 169 -43t107 -112l-106 -73q-18 40 -47 63t-62 33t-65 10q-52 0 -90 -21t-65 -55t-38 -76t-13 -84q0 -47 15 -90t42 -77t66 -53t85 -20q33 0 67 11t63 35t45 62l113 -65q-21 -53 -68 -90t-107 -56t-117 -19q-76 0 -139 31 t-108 84t-71 118t-26 133zM362 -201q-27 0 -58 7t-62 23l34 71q15 -10 30 -15t33 -6q26 0 40 11t15 34q0 21 -14 39t-42 37l45 29q40 -26 66 -56t26 -75q0 -42 -28 -70t-85 -29z" glyph-name="Ccedilla" horiz-adv-x="686" unicode="Ç"/>
<glyph d="M567 121v-121h-493v710h484v-121h-346v-171h299v-112h-299v-185h355zM201 916h124l55 -119l-86 -26z" glyph-name="Egrave" horiz-adv-x="601" unicode="È"/>
<glyph d="M567 121v-121h-493v710h484v-121h-346v-171h299v-112h-299v-185h355zM370 770l-86 26l54 119h125z" glyph-name="Eacute" horiz-adv-x="601" unicode="É"/>
<glyph d="M567 121v-121h-493v710h484v-121h-346v-171h299v-112h-299v-185h355zM171 814l106 101h97l106 -101l-69 -32l-85 63l-85 -63z" glyph-name="Ecircumflex" horiz-adv-x="601" unicode="Ê"/>
<glyph d="M567 121v-121h-493v710h484v-121h-346v-171h299v-112h-299v-185h355zM174 790v119h111v-119h-111zM366 790v119h111v-119h-111z" glyph-name="Edieresis" horiz-adv-x="601" unicode="Ë"/>
<glyph d="M74 0v710h138v-710h-138zM18 916h124l55 -119l-86 -26z" glyph-name="Igrave" horiz-adv-x="286" unicode="Ì"/>
<glyph d="M74 0v710h138v-710h-138zM187 770l-86 26l54 119h125z" glyph-name="Iacute" horiz-adv-x="286" unicode="Í"/>
<glyph d="M74 0v710h138v-710h-138zM-12 814l106 101h97l106 -101l-69 -32l-85 63l-85 -63z" glyph-name="Icircumflex" horiz-adv-x="286" unicode="Î"/>
<glyph d="M74 0v710h138v-710h-138zM-9 790v119h111v-119h-111zM183 790v119h111v-119h-111z" glyph-name="Idieresis" horiz-adv-x="286" unicode="Ï"/>
<glyph d="M31 307v100h325v-100h-325zM79 0v710h258q116 0 194 -47t117 -128t39 -179q0 -108 -43 -188t-121 -124t-186 -44h-258zM548 356q0 69 -25 121t-72 82t-114 30h-120v-468h120q68 0 115 30t71 84t25 121z" glyph-name="Eth" horiz-adv-x="721" unicode="Ð"/>
<glyph d="M212 456v-456h-138v710h110l367 -468v467h138v-709h-115zM446 787q-30 0 -51 11t-40 23t-40 11q-22 0 -32 -11t-13 -24l-3 -13h-74q0 9 6 30t19 43t36 39t56 16q31 0 51 -12t38 -23t43 -12q24 0 35 12t14 24t4 14h74q0 -7 -6 -27t-20 -43t-38 -41t-59 -17z" glyph-name="Ntilde" horiz-adv-x="763" unicode="Ñ"/>
<glyph d="M377 -5q-78 0 -141 30t-109 81t-71 116t-25 133q0 71 26 135t73 115t110 80t140 30q77 0 140 -31t109 -83t70 -116t25 -132q0 -70 -26 -134t-72 -115t-110 -80t-139 -29zM171 355q0 -46 14 -89t40 -76t65 -53t88 -20q50 0 89 20t65 55t39 77t14 86q0 46 -14 88t-41 76 t-65 53t-87 20q-51 0 -89 -20t-65 -55t-39 -76t-14 -86zM255 916h124l55 -119l-86 -26z" glyph-name="Ograve" horiz-adv-x="756" unicode="Ò"/>
<glyph d="M377 -5q-78 0 -141 30t-109 81t-71 116t-25 133q0 71 26 135t73 115t110 80t140 30q77 0 140 -31t109 -83t70 -116t25 -132q0 -70 -26 -134t-72 -115t-110 -80t-139 -29zM171 355q0 -46 14 -89t40 -76t65 -53t88 -20q50 0 89 20t65 55t39 77t14 86q0 46 -14 88t-41 76 t-65 53t-87 20q-51 0 -89 -20t-65 -55t-39 -76t-14 -86zM424 770l-86 26l54 119h125z" glyph-name="Oacute" horiz-adv-x="756" unicode="Ó"/>
<glyph d="M377 -5q-78 0 -141 30t-109 81t-71 116t-25 133q0 71 26 135t73 115t110 80t140 30q77 0 140 -31t109 -83t70 -116t25 -132q0 -70 -26 -134t-72 -115t-110 -80t-139 -29zM171 355q0 -46 14 -89t40 -76t65 -53t88 -20q50 0 89 20t65 55t39 77t14 86q0 46 -14 88t-41 76 t-65 53t-87 20q-51 0 -89 -20t-65 -55t-39 -76t-14 -86zM225 814l106 101h97l106 -101l-69 -32l-85 63l-85 -63z" glyph-name="Ocircumflex" horiz-adv-x="756" unicode="Ô"/>
<glyph d="M377 -5q-78 0 -141 30t-109 81t-71 116t-25 133q0 71 26 135t73 115t110 80t140 30q77 0 140 -31t109 -83t70 -116t25 -132q0 -70 -26 -134t-72 -115t-110 -80t-139 -29zM171 355q0 -46 14 -89t40 -76t65 -53t88 -20q50 0 89 20t65 55t39 77t14 86q0 46 -14 88t-41 76 t-65 53t-87 20q-51 0 -89 -20t-65 -55t-39 -76t-14 -86zM445 787q-30 0 -51 11t-40 23t-40 11q-22 0 -32 -11t-13 -24l-3 -13h-74q0 9 6 30t19 43t36 39t56 16q31 0 51 -12t38 -23t43 -12q24 0 35 12t14 24t4 14h74q0 -7 -6 -27t-20 -43t-38 -41t-59 -17z" glyph-name="Otilde" horiz-adv-x="756" unicode="Õ"/>
<glyph d="M377 -5q-78 0 -141 30t-109 81t-71 116t-25 133q0 71 26 135t73 115t110 80t140 30q77 0 140 -31t109 -83t70 -116t25 -132q0 -70 -26 -134t-72 -115t-110 -80t-139 -29zM171 355q0 -46 14 -89t40 -76t65 -53t88 -20q50 0 89 20t65 55t39 77t14 86q0 46 -14 88t-41 76 t-65 53t-87 20q-51 0 -89 -20t-65 -55t-39 -76t-14 -86zM228 790v119h111v-119h-111zM420 790v119h111v-119h-111z" glyph-name="Odieresis" horiz-adv-x="756" unicode="Ö"/>
<glyph d="M425 172l-84 -83l-103 103l-103 -103l-83 84l102 102l-98 99l84 83l98 -98l99 99l83 -84l-98 -99z" glyph-name="multiply" horiz-adv-x="477" unicode="×"/>
<glyph d="M377 -5q-78 0 -141 30t-109 81t-71 116t-25 133q0 71 26 135t73 115t110 80t140 30q77 0 140 -31t109 -83t70 -116t25 -132q0 -70 -26 -134t-72 -115t-110 -80t-139 -29zM171 355q0 -46 14 -89t40 -76t65 -53t88 -20q50 0 89 20t65 55t39 77t14 86q0 46 -14 88t-41 76 t-65 53t-87 20q-51 0 -89 -20t-65 -55t-39 -76t-14 -86zM700 710l-496 -710h-148l495 710h149z" glyph-name="Oslash" horiz-adv-x="755" unicode="Ø"/>
<glyph d="M375 -5q-85 0 -144 28t-96 79t-54 113t-17 133v362h138v-362q0 -44 8 -85t29 -75t53 -52t82 -19q50 0 83 19t53 53t29 74t9 85v362h137v-362q0 -73 -17 -137t-55 -112t-97 -76t-141 -28zM250 916h124l55 -119l-86 -26z" glyph-name="Ugrave" horiz-adv-x="750" unicode="Ù"/>
<glyph d="M375 -5q-85 0 -144 28t-96 79t-54 113t-17 133v362h138v-362q0 -44 8 -85t29 -75t53 -52t82 -19q50 0 83 19t53 53t29 74t9 85v362h137v-362q0 -73 -17 -137t-55 -112t-97 -76t-141 -28zM419 770l-86 26l54 119h125z" glyph-name="Uacute" horiz-adv-x="750" unicode="Ú"/>
<glyph d="M375 -5q-85 0 -144 28t-96 79t-54 113t-17 133v362h138v-362q0 -44 8 -85t29 -75t53 -52t82 -19q50 0 83 19t53 53t29 74t9 85v362h137v-362q0 -73 -17 -137t-55 -112t-97 -76t-141 -28zM220 814l106 101h97l106 -101l-69 -32l-85 63l-85 -63z" glyph-name="Ucircumflex" horiz-adv-x="750" unicode="Û"/>
<glyph d="M375 -5q-85 0 -144 28t-96 79t-54 113t-17 133v362h138v-362q0 -44 8 -85t29 -75t53 -52t82 -19q50 0 83 19t53 53t29 74t9 85v362h137v-362q0 -73 -17 -137t-55 -112t-97 -76t-141 -28zM223 790v119h111v-119h-111zM415 790v119h111v-119h-111z" glyph-name="Udieresis" horiz-adv-x="750" unicode="Ü"/>
<glyph d="M154 710l175 -334l178 334h149l-258 -462v-248h-137v250l-257 460h150zM374 770l-86 26l54 119h125z" glyph-name="Yacute" horiz-adv-x="660" unicode="Ý"/>
<glyph d="M358 582q49 0 90 -20t72 -54t47 -76t17 -86q0 -60 -27 -114t-77 -88t-116 -34h-152v-110h-138v710h138v-128h146zM357 231q27 0 47 15t31 42t12 58q0 34 -13 59t-36 41t-47 15h-139v-230h145z" glyph-name="Thorn" horiz-adv-x="604" unicode="Þ"/>
<glyph d="M247 117q62 1 102 27t41 81q0 34 -16 58t-42 37t-56 13h-21v120h19q24 0 41 9t27 26t9 39q0 29 -13 44t-31 22t-35 7q-31 0 -50 -16t-26 -39t-8 -46v-499h-127v522q0 56 29 99t79 68t114 25q56 0 100 -20t69 -56t26 -88q0 -34 -12 -65t-31 -52t-44 -31q65 -18 102 -69 t37 -123q0 -57 -23 -98t-62 -66t-91 -38t-107 -14v123z" glyph-name="germandbls" horiz-adv-x="558" unicode="ß"/>
<glyph d="M25 155q0 51 28 89t80 60t117 21q33 0 67 -5t59 -16v28q0 50 -29 77t-88 27q-43 0 -82 -15t-82 -44l-43 88q52 34 106 51t115 17q112 0 174 -56t63 -160v-167q0 -21 7 -30t25 -11v-109q-18 -3 -32 -5t-25 -2q-40 0 -60 18t-26 44l-3 27q-34 -44 -85 -68t-104 -24 q-52 0 -93 21t-65 59t-24 85zM351 128q11 12 18 24t7 22v53q-24 10 -52 15t-53 6q-52 0 -85 -22t-34 -60q0 -20 11 -38t32 -29t50 -11q30 0 59 11t47 29zM148 731h124l55 -119l-86 -26z" glyph-name="agrave" unicode="à"/>
<glyph d="M25 155q0 51 28 89t80 60t117 21q33 0 67 -5t59 -16v28q0 50 -29 77t-88 27q-43 0 -82 -15t-82 -44l-43 88q52 34 106 51t115 17q112 0 174 -56t63 -160v-167q0 -21 7 -30t25 -11v-109q-18 -3 -32 -5t-25 -2q-40 0 -60 18t-26 44l-3 27q-34 -44 -85 -68t-104 -24 q-52 0 -93 21t-65 59t-24 85zM351 128q11 12 18 24t7 22v53q-24 10 -52 15t-53 6q-52 0 -85 -22t-34 -60q0 -20 11 -38t32 -29t50 -11q30 0 59 11t47 29zM317 585l-86 26l54 119h125z" glyph-name="aacute" unicode="á"/>
<glyph d="M25 155q0 51 28 89t80 60t117 21q33 0 67 -5t59 -16v28q0 50 -29 77t-88 27q-43 0 -82 -15t-82 -44l-43 88q52 34 106 51t115 17q112 0 174 -56t63 -160v-167q0 -21 7 -30t25 -11v-109q-18 -3 -32 -5t-25 -2q-40 0 -60 18t-26 44l-3 27q-34 -44 -85 -68t-104 -24 q-52 0 -93 21t-65 59t-24 85zM351 128q11 12 18 24t7 22v53q-24 10 -52 15t-53 6q-52 0 -85 -22t-34 -60q0 -20 11 -38t32 -29t50 -11q30 0 59 11t47 29zM118 629l106 101h97l106 -101l-69 -32l-85 63l-85 -63z" glyph-name="acircumflex" unicode="â"/>
<glyph d="M25 155q0 51 28 89t80 60t117 21q33 0 67 -5t59 -16v28q0 50 -29 77t-88 27q-43 0 -82 -15t-82 -44l-43 88q52 34 106 51t115 17q112 0 174 -56t63 -160v-167q0 -21 7 -30t25 -11v-109q-18 -3 -32 -5t-25 -2q-40 0 -60 18t-26 44l-3 27q-34 -44 -85 -68t-104 -24 q-52 0 -93 21t-65 59t-24 85zM351 128q11 12 18 24t7 22v53q-24 10 -52 15t-53 6q-52 0 -85 -22t-34 -60q0 -20 11 -38t32 -29t50 -11q30 0 59 11t47 29zM337 602q-30 0 -51 11t-40 23t-40 11q-22 0 -32 -11t-13 -24l-3 -13h-74q0 9 6 30t19 43t36 39t56 16q31 0 51 -12 t38 -23t43 -12q24 0 35 12t14 24t4 14h74q0 -7 -6 -27t-20 -43t-38 -41t-59 -17z" glyph-name="atilde" unicode="ã"/>
<glyph d="M25 155q0 51 28 89t80 60t117 21q33 0 67 -5t59 -16v28q0 50 -29 77t-88 27q-43 0 -82 -15t-82 -44l-43 88q52 34 106 51t115 17q112 0 174 -56t63 -160v-167q0 -21 7 -30t25 -11v-109q-18 -3 -32 -5t-25 -2q-40 0 -60 18t-26 44l-3 27q-34 -44 -85 -68t-104 -24 q-52 0 -93 21t-65 59t-24 85zM351 128q11 12 18 24t7 22v53q-24 10 -52 15t-53 6q-52 0 -85 -22t-34 -60q0 -20 11 -38t32 -29t50 -11q30 0 59 11t47 29zM121 605v119h111v-119h-111zM313 605v119h111v-119h-111z" glyph-name="adieresis" unicode="ä"/>
<glyph d="M25 155q0 51 28 89t80 60t117 21q33 0 67 -5t59 -16v28q0 50 -29 77t-88 27q-43 0 -82 -15t-82 -44l-43 88q52 34 106 51t115 17q112 0 174 -56t63 -160v-167q0 -21 7 -30t25 -11v-109q-18 -3 -32 -5t-25 -2q-40 0 -60 18t-26 44l-3 27q-34 -44 -85 -68t-104 -24 q-52 0 -93 21t-65 59t-24 85zM351 128q11 12 18 24t7 22v53q-24 10 -52 15t-53 6q-52 0 -85 -22t-34 -60q0 -20 11 -38t32 -29t50 -11q30 0 59 11t47 29zM167 655q0 42 29 66t76 25q47 0 76 -24t29 -67q0 -41 -29 -65t-76 -25q-46 0 -75 24t-30 66zM272 699q-18 0 -31 -12 t-13 -31q0 -18 12 -31t32 -13q18 0 31 12t13 32q0 18 -13 30t-31 13z" glyph-name="aring" unicode="å"/>
<glyph d="M204 -10q-51 0 -91 21t-64 60t-24 85q0 50 28 88t79 59t116 22q32 0 63 -5t55 -15q1 11 3 22t5 22q-4 44 -33 67t-82 24q-42 0 -82 -15t-83 -44l-41 85q104 67 219 67q62 0 108 -19t75 -55q33 34 80 54t106 20q85 0 146 -37t95 -99t34 -135q0 -10 -1 -22t-2 -21h-410 q3 -40 23 -70t52 -45t69 -16q40 0 75 19t49 52l115 -32q-19 -40 -54 -71t-84 -48t-106 -18q-74 0 -131 29t-94 79q-23 -38 -59 -62t-77 -35t-77 -11zM242 88q33 0 64 12t48 32q21 17 22 36q-4 13 -6 31t-4 34q-22 8 -47 12t-49 5q-52 0 -85 -23t-34 -60q0 -22 12 -40t32 -29 t47 -10zM778 302q-4 40 -22 70t-49 47t-68 17q-38 0 -68 -17t-49 -47t-21 -70h277z" glyph-name="ae" horiz-adv-x="937" unicode="æ"/>
<glyph d="M305 -10q-64 0 -115 21t-87 60t-55 88t-20 103q0 74 33 135t96 99t147 37q85 0 146 -37t91 -97l-131 -40q-17 29 -45 44t-62 16q-38 0 -69 -19t-50 -55t-18 -83q0 -46 18 -81t50 -56t69 -21q24 0 45 8t39 22t25 32l131 -40q-18 -39 -52 -70t-81 -48t-105 -18zM291 -201 q-27 0 -58 7t-62 23l34 71q15 -10 30 -15t33 -6q26 0 40 11t15 34q0 21 -14 39t-42 37l45 29q40 -26 66 -56t26 -75q0 -42 -28 -70t-85 -29z" glyph-name="ccedilla" horiz-adv-x="564" unicode="ç"/>
<glyph d="M304 -10q-63 0 -114 21t-87 59t-55 86t-20 103q0 75 33 137t96 99t148 38q86 0 147 -37t93 -99t33 -133q0 -12 -1 -24t-2 -21h-405q4 -40 23 -70t50 -45t66 -16q40 0 75 19t49 52l115 -32q-19 -40 -54 -71t-84 -48t-106 -18zM167 304h274q-4 40 -22 69t-49 46t-67 17 t-65 -16t-48 -46t-23 -70zM178 731h124l55 -119l-86 -26z" glyph-name="egrave" horiz-adv-x="599" unicode="è"/>
<glyph d="M304 -10q-63 0 -114 21t-87 59t-55 86t-20 103q0 75 33 137t96 99t148 38q86 0 147 -37t93 -99t33 -133q0 -12 -1 -24t-2 -21h-405q4 -40 23 -70t50 -45t66 -16q40 0 75 19t49 52l115 -32q-19 -40 -54 -71t-84 -48t-106 -18zM167 304h274q-4 40 -22 69t-49 46t-67 17 t-65 -16t-48 -46t-23 -70zM347 585l-86 26l54 119h125z" glyph-name="eacute" horiz-adv-x="599" unicode="é"/>
<glyph d="M304 -10q-63 0 -114 21t-87 59t-55 86t-20 103q0 75 33 137t96 99t148 38q86 0 147 -37t93 -99t33 -133q0 -12 -1 -24t-2 -21h-405q4 -40 23 -70t50 -45t66 -16q40 0 75 19t49 52l115 -32q-19 -40 -54 -71t-84 -48t-106 -18zM167 304h274q-4 40 -22 69t-49 46t-67 17 t-65 -16t-48 -46t-23 -70zM148 629l106 101h97l106 -101l-69 -32l-85 63l-85 -63z" glyph-name="ecircumflex" horiz-adv-x="599" unicode="ê"/>
<glyph d="M304 -10q-63 0 -114 21t-87 59t-55 86t-20 103q0 75 33 137t96 99t148 38q86 0 147 -37t93 -99t33 -133q0 -12 -1 -24t-2 -21h-405q4 -40 23 -70t50 -45t66 -16q40 0 75 19t49 52l115 -32q-19 -40 -54 -71t-84 -48t-106 -18zM167 304h274q-4 40 -22 69t-49 46t-67 17 t-65 -16t-48 -46t-23 -70zM151 605v119h111v-119h-111zM343 605v119h111v-119h-111z" glyph-name="edieresis" horiz-adv-x="599" unicode="ë"/>
<glyph d="M61 0v524h134v-524h-134zM259 731h124l55 -119l-86 -26z" glyph-name="igrave" horiz-adv-x="255" unicode="ì"/>
<glyph d="M61 0v524h134v-524h-134zM172 585l-86 26l54 119h125z" glyph-name="iacute" horiz-adv-x="255" unicode="í"/>
<glyph d="M61 0v524h134v-524h-134zM229 629l106 101h97l106 -101l-69 -32l-85 63l-85 -63z" glyph-name="icircumflex" horiz-adv-x="255" unicode="î"/>
<glyph d="M61 0v524h134v-524h-134zM232 605v119h111v-119h-111zM424 605v119h111v-119h-111z" glyph-name="idieresis" horiz-adv-x="255" unicode="ï"/>
<glyph d="M580 290q0 -70 -20 -125t-58 -95t-88 -59t-111 -21q-76 0 -138 32t-98 87t-36 124q0 50 18 93t52 76t77 51t95 19q52 0 97 -21t73 -57q-10 47 -31 91t-56 86t-86 81t-124 78h172q67 -35 116 -85t82 -110t48 -122t16 -123zM169 234q0 -37 17 -66t49 -47t70 -17q40 0 71 18 t49 48t18 67t-18 65t-48 45t-70 17t-71 -17t-49 -46t-18 -67zM526 660l-111 -61l-42 -13l-113 -64l-39 52l113 63l38 10l115 66z" glyph-name="eth" horiz-adv-x="613" unicode="ð"/>
<glyph d="M548 0h-134v294q0 63 -22 92t-61 29q-27 0 -54 -14t-50 -38t-32 -57v-306h-134v524h121v-97q20 34 51 57t71 36t86 13q49 0 80 -17t48 -47t23 -67t7 -75v-327zM382 602q-30 0 -51 11t-40 23t-40 11q-22 0 -32 -11t-13 -24l-3 -13h-74q0 9 6 30t19 43t36 39t56 16 q31 0 51 -12t38 -23t43 -12q24 0 35 12t14 24t4 14h74q0 -7 -6 -27t-20 -43t-38 -41t-59 -17z" glyph-name="ntilde" horiz-adv-x="604" unicode="ñ"/>
<glyph d="M303 -10q-64 0 -115 21t-86 60t-55 87t-19 103q0 55 19 104t54 87t87 59t115 22q64 0 114 -21t87 -60t54 -87t19 -104q0 -54 -18 -103t-54 -87t-87 -59t-115 -22zM166 261q0 -46 18 -81t49 -56t70 -20q38 0 69 20t49 56t19 82q0 45 -18 81t-50 56t-69 20q-39 0 -70 -20 t-49 -56t-18 -82zM178 731h124l55 -119l-86 -26z" glyph-name="ograve" horiz-adv-x="606" unicode="ò"/>
<glyph d="M303 -10q-64 0 -115 21t-86 60t-55 87t-19 103q0 55 19 104t54 87t87 59t115 22q64 0 114 -21t87 -60t54 -87t19 -104q0 -54 -18 -103t-54 -87t-87 -59t-115 -22zM166 261q0 -46 18 -81t49 -56t70 -20q38 0 69 20t49 56t19 82q0 45 -18 81t-50 56t-69 20q-39 0 -70 -20 t-49 -56t-18 -82zM347 585l-86 26l54 119h125z" glyph-name="oacute" horiz-adv-x="606" unicode="ó"/>
<glyph d="M303 -10q-64 0 -115 21t-86 60t-55 87t-19 103q0 55 19 104t54 87t87 59t115 22q64 0 114 -21t87 -60t54 -87t19 -104q0 -54 -18 -103t-54 -87t-87 -59t-115 -22zM166 261q0 -46 18 -81t49 -56t70 -20q38 0 69 20t49 56t19 82q0 45 -18 81t-50 56t-69 20q-39 0 -70 -20 t-49 -56t-18 -82zM148 629l106 101h97l106 -101l-69 -32l-85 63l-85 -63z" glyph-name="ocircumflex" horiz-adv-x="606" unicode="ô"/>
<glyph d="M303 -10q-64 0 -115 21t-86 60t-55 87t-19 103q0 55 19 104t54 87t87 59t115 22q64 0 114 -21t87 -60t54 -87t19 -104q0 -54 -18 -103t-54 -87t-87 -59t-115 -22zM166 261q0 -46 18 -81t49 -56t70 -20q38 0 69 20t49 56t19 82q0 45 -18 81t-50 56t-69 20q-39 0 -70 -20 t-49 -56t-18 -82zM368 602q-30 0 -51 11t-40 23t-40 11q-22 0 -32 -11t-13 -24l-3 -13h-74q0 9 6 30t19 43t36 39t56 16q31 0 51 -12t38 -23t43 -12q24 0 35 12t14 24t4 14h74q0 -7 -6 -27t-20 -43t-38 -41t-59 -17z" glyph-name="otilde" horiz-adv-x="606" unicode="õ"/>
<glyph d="M303 -10q-64 0 -115 21t-86 60t-55 87t-19 103q0 55 19 104t54 87t87 59t115 22q64 0 114 -21t87 -60t54 -87t19 -104q0 -54 -18 -103t-54 -87t-87 -59t-115 -22zM166 261q0 -46 18 -81t49 -56t70 -20q38 0 69 20t49 56t19 82q0 45 -18 81t-50 56t-69 20q-39 0 -70 -20 t-49 -56t-18 -82zM151 605v119h111v-119h-111zM343 605v119h111v-119h-111z" glyph-name="odieresis" horiz-adv-x="606" unicode="ö"/>
<glyph d="M200 419v128h113v-128h-113zM200 48v129h113v-129h-113zM54 244v107h404v-107h-404z" glyph-name="divide" horiz-adv-x="511" unicode="÷"/>
<glyph d="M303 -10q-64 0 -115 21t-86 60t-55 87t-19 103q0 55 19 104t54 87t87 59t115 22q64 0 114 -21t87 -60t54 -87t19 -104q0 -54 -18 -103t-54 -87t-87 -59t-115 -22zM303 104q38 0 69 20t49 56t19 82q0 45 -18 81t-50 56t-69 20q-39 0 -70 -20t-49 -56t-18 -82t18 -81 t49 -56t70 -20zM42 -4l103 127l56 -41l-73 -86h-86zM211 94l-49 36l235 308l55 -29zM469 417l-63 32l65 79h88z" glyph-name="oslash" horiz-adv-x="606" unicode="ø"/>
<glyph d="M56 196v328h134v-299q0 -60 22 -90t65 -31q26 0 51 10t47 32t37 53v325h134v-374q0 -21 7 -30t25 -11v-109q-20 -3 -33 -4t-25 -2q-36 0 -58 16t-27 46l-3 42q-35 -53 -90 -80t-121 -28q-81 0 -123 52t-42 154zM176 731h124l55 -119l-86 -26z" glyph-name="ugrave" horiz-adv-x="618" unicode="ù"/>
<glyph d="M56 196v328h134v-299q0 -60 22 -90t65 -31q26 0 51 10t47 32t37 53v325h134v-374q0 -21 7 -30t25 -11v-109q-20 -3 -33 -4t-25 -2q-36 0 -58 16t-27 46l-3 42q-35 -53 -90 -80t-121 -28q-81 0 -123 52t-42 154zM345 585l-86 26l54 119h125z" glyph-name="uacute" horiz-adv-x="618" unicode="ú"/>
<glyph d="M56 196v328h134v-299q0 -60 22 -90t65 -31q26 0 51 10t47 32t37 53v325h134v-374q0 -21 7 -30t25 -11v-109q-20 -3 -33 -4t-25 -2q-36 0 -58 16t-27 46l-3 42q-35 -53 -90 -80t-121 -28q-81 0 -123 52t-42 154zM146 629l106 101h97l106 -101l-69 -32l-85 63l-85 -63z" glyph-name="ucircumflex" horiz-adv-x="618" unicode="û"/>
<glyph d="M56 196v328h134v-299q0 -60 22 -90t65 -31q26 0 51 10t47 32t37 53v325h134v-374q0 -21 7 -30t25 -11v-109q-20 -3 -33 -4t-25 -2q-36 0 -58 16t-27 46l-3 42q-35 -53 -90 -80t-121 -28q-81 0 -123 52t-42 154zM149 605v119h111v-119h-111zM341 605v119h111v-119h-111z " glyph-name="udieresis" horiz-adv-x="618" unicode="ü"/>
<glyph d="M72 -102q18 -4 33 -7t27 -3q19 0 31 9t25 34t25 69l-207 524h139l141 -387l124 387h128l-220 -628q-12 -35 -36 -63t-61 -45t-82 -17q-16 0 -32 2t-35 9v116zM331 585l-86 26l54 119h125z" glyph-name="yacute" horiz-adv-x="550" unicode="ý"/>
<glyph d="M574 256q-1 -55 -21 -105t-57 -90t-83 -62t-102 -23q-45 0 -74 17t-39 34v-240h-137v923h137v-227q13 19 41 37t80 19q59 0 106 -25t80 -66t51 -91t18 -101zM437 258q0 43 -15 79t-44 59t-67 22q-27 0 -48 -11t-37 -29t-28 -42v-160q0 -14 9 -28t26 -25t35 -19t39 -7 q28 0 51 12t41 35t28 52t10 62z" glyph-name="thorn" horiz-adv-x="601" unicode="þ"/>
</font>
</defs>
</svg>
